<svg id="layer1" xmlns="http://www.w3.org/2000/svg" viewBox="0 0 119 119"><circle cx="59.5" cy="59.5" r="59.5" fill="#fff"/><path d="M116.53,136.08h-1.64v-6.3c0-2.12-.76-3.48-2.4-3.48a2.78,2.78,0,0,0-2.56,2.92v6.86h-1.64v-6.72c0-1.74-.74-3.06-2.28-3.06a3,3,0,0,0-2.68,3.1v6.68h-1.64V128c0-1.12,0-1.92-.08-2.82h1.46l.1,1.76h.06a3.63,3.63,0,0,1,3.32-2,3.11,3.11,0,0,1,3,2.18h0a3.82,3.82,0,0,1,3.5-2.18c1.34,0,3.46.86,3.46,4.6Z" transform="translate(-71.18 -71.18)"/><path d="M126.89,133.48a15.25,15.25,0,0,0,.16,2.6h-1.52l-.16-1.4h-.06a3.8,3.8,0,0,1-3.22,1.65,3,3,0,0,1-3.19-3.11c0-2.62,2.29-4,6.33-4,0-.92,0-3-2.48-3a4.72,4.72,0,0,0-2.66.78l-.4-1.14a6.2,6.2,0,0,1,3.32-.92c3.08,0,3.88,2.18,3.88,4.34Zm-1.64-3.06c-2.06,0-4.64.3-4.64,2.6a1.81,1.81,0,0,0,1.88,2,2.67,2.67,0,0,0,2.76-2.56Z" transform="translate(-71.18 -71.18)"/><path d="M138.63,133.18c0,1.12.06,2.06.1,2.9h-1.5l-.08-1.72h-.06a4,4,0,0,1-3.48,2c-1.64,0-3.58-1-3.58-4.71v-6.44h1.66v6.14c0,2.12.62,3.6,2.44,3.6a2.89,2.89,0,0,0,2.84-3v-6.78h1.66Z" transform="translate(-71.18 -71.18)"/><path d="M150.29,125.18l-4.14,10.9h-1.56l-4-10.92h1.78l2.18,6.34c.34,1,.64,1.9.88,2.8h.06c.24-.9.56-1.82.9-2.8l2.16-6.32Z" transform="translate(-71.18 -71.18)"/><path d="M159.89,135.62a7.91,7.91,0,0,1-3.42.68c-3.18,0-5.08-2.24-5.08-5.5,0-3.42,1.92-5.88,4.86-5.88,3.36,0,4.22,3.08,4.22,5,0,.38,0,.66,0,.92H153c0,3,1.74,4.16,3.7,4.16a6.89,6.89,0,0,0,2.86-.56Zm-1.06-6c0-1.48-.6-3.4-2.74-3.4s-2.88,1.9-3,3.4Z" transform="translate(-71.18 -71.18)"/></svg>