<svg id="レイヤー_1" data-name="レイヤー 1" xmlns="http://www.w3.org/2000/svg" viewBox="0 0 46.75 117"><g style="isolation:isolate"><path d="M294.55,269.72v1.65h-3.87v9.27h-2.11v-9.27h-3.88v-1.65Z" transform="translate(-284.69 -208.25)" fill="#383838"/><path d="M297.77,273.2a4.45,4.45,0,0,1,2.07.48,3.43,3.43,0,0,1,1.44,1.33,3.76,3.76,0,0,1,.51,1.95,4,4,0,0,1-.49,2,3.43,3.43,0,0,1-1.44,1.35,4.56,4.56,0,0,1-2.09.49,4.49,4.49,0,0,1-2.08-.49,3.46,3.46,0,0,1-1.43-1.35,4,4,0,0,1-.49-2,3.66,3.66,0,0,1,.52-2,3.5,3.5,0,0,1,1.44-1.33A4.44,4.44,0,0,1,297.77,273.2Zm-2,3.76a2.68,2.68,0,0,0,.53,1.74,1.77,1.77,0,0,0,1.44.66,1.84,1.84,0,0,0,1.47-.63,2.66,2.66,0,0,0,.54-1.79,2.47,2.47,0,0,0-.54-1.71,1.85,1.85,0,0,0-1.47-.61,1.82,1.82,0,0,0-1.43.64A2.55,2.55,0,0,0,295.79,277Z" transform="translate(-284.69 -208.25)" fill="#383838"/><path d="M307.08,273.2a3.22,3.22,0,0,1,2.52,1.05,3.86,3.86,0,0,1,1,2.72,4.21,4.21,0,0,1-.45,2,3.21,3.21,0,0,1-1.28,1.35,3.55,3.55,0,0,1-1.87.49,3.86,3.86,0,0,1-1.71-.43v4h-1.92v-11h1.9v.47A3.15,3.15,0,0,1,307.08,273.2Zm-1.83,5.74a2.7,2.7,0,0,0,1.34.42,1.83,1.83,0,0,0,1.46-.65,2.52,2.52,0,0,0,.54-1.67,2.76,2.76,0,0,0-.49-1.75,1.61,1.61,0,0,0-1.38-.64,1.78,1.78,0,0,0-.65.12,3.29,3.29,0,0,0-.82.48Z" transform="translate(-284.69 -208.25)" fill="#383838"/></g><path id="長方形_31" data-name="長方形 31" d="M330.56,208.65h0a1.49,1.49,0,0,1,.07,2.12l-18.41,19.75a1.51,1.51,0,0,1-2.12.07h0a1.49,1.49,0,0,1-.07-2.12l18.41-19.75A1.5,1.5,0,0,1,330.56,208.65Z" transform="translate(-284.69 -208.25)" fill="#383838"/><path id="長方形_32" data-name="長方形 32" d="M329.94,208.72h0a1.5,1.5,0,0,1,1.5,1.5V323.74a1.5,1.5,0,0,1-1.5,1.5h0a1.5,1.5,0,0,1-1.5-1.5V210.22A1.5,1.5,0,0,1,329.94,208.72Z" transform="translate(-284.69 -208.25)" fill="#383838"/></svg>