<?xml version="1.0" standalone="no"?>
<!DOCTYPE svg PUBLIC "-//W3C//DTD SVG 20010904//EN"
 "http://www.w3.org/TR/2001/REC-SVG-20010904/DTD/svg10.dtd">
<svg version="1.0" xmlns="http://www.w3.org/2000/svg"
 width="200.000000pt" height="200.000000pt" viewBox="0 0 200.000000 200.000000"
 preserveAspectRatio="xMidYMid meet">

<g transform="translate(0.000000,200.000000) scale(0.100000,-0.100000)"
fill="#000000" stroke="none">
<path d="M0 1640 c0 -325 5 -394 24 -345 3 8 16 15 29 15 15 0 33 11 47 29 30
40 55 42 119 8 29 -15 56 -26 58 -23 12 12 -8 54 -24 52 -14 -1 -17 9 -17 68
-1 58 2 71 18 80 11 6 29 19 40 28 33 30 56 32 88 8 34 -25 89 -34 100 -16 10
16 40 -4 56 -37 10 -22 20 -27 48 -27 18 0 34 -4 34 -10 0 -5 6 -10 14 -10 14
0 46 -41 46 -59 0 -6 -7 -7 -17 -4 -11 5 -14 3 -9 -6 5 -7 17 -10 27 -8 26 7
85 -10 105 -30 9 -10 38 -18 71 -20 31 -2 66 -11 79 -20 15 -9 24 -11 24 -4 0
16 16 14 34 -4 8 -8 24 -15 34 -15 13 0 29 -14 42 -36 15 -23 26 -32 32 -26 6
6 16 8 23 6 20 -8 70 29 70 51 0 14 6 19 20 17 24 -4 59 -3 105 0 29 3 35 0
35 -17 0 -13 -6 -20 -17 -19 -10 1 -18 -2 -18 -7 0 -5 7 -9 15 -9 13 0 12 -4
-4 -22 -12 -12 -23 -29 -26 -37 -7 -24 -44 -44 -58 -33 -14 11 -97 11 -97 0 0
-5 -7 -8 -15 -8 -18 0 -20 -20 -2 -21 6 0 3 -4 -8 -9 -17 -7 -18 -9 -2 -9 16
-1 55 -19 67 -31 11 -11 50 -9 50 2 0 7 7 5 18 -6 12 -13 14 -20 5 -23 -7 -3
-13 -9 -13 -15 0 -6 9 -3 20 7 11 10 20 16 21 14 0 -2 2 -14 5 -27 5 -28 -18
-39 -50 -24 -16 7 -37 6 -70 -2 -40 -11 -51 -18 -62 -46 -11 -24 -17 -31 -26
-22 -7 7 -19 7 -35 1 -14 -5 -29 -7 -33 -4 -5 3 -21 3 -35 -1 -21 -5 -24 -9
-13 -16 9 -7 5 -8 -12 -4 -42 9 -69 -3 -64 -27 5 -27 -4 -57 -17 -57 -6 0 -8
4 -5 8 2 4 -4 13 -15 20 -10 7 -19 8 -19 3 0 -5 6 -12 13 -14 9 -4 9 -6 -1 -6
-7 -1 -16 9 -21 21 -5 14 -10 17 -15 10 -4 -6 -3 -20 3 -30 9 -17 1 -45 -13
-43 -18 3 -19 -1 -3 -10 19 -11 77 -3 77 11 0 13 47 21 72 11 73 -28 130 -42
150 -38 17 3 15 5 -9 6 -56 2 -36 16 22 16 47 0 53 -2 38 -12 -15 -12 -15 -13
4 -13 11 0 23 7 27 15 8 21 76 21 76 0 0 -8 4 -15 10 -15 5 0 7 6 4 14 -7 18
6 25 55 30 27 3 46 -1 56 -10 18 -18 25 -18 25 1 0 8 5 15 11 15 6 0 8 -7 5
-16 -3 -8 -2 -12 4 -9 5 3 18 1 29 -4 14 -8 21 -8 24 2 4 9 6 9 6 0 1 -7 8
-13 17 -13 8 0 13 -4 10 -9 -3 -5 1 -12 10 -15 12 -5 15 -2 10 11 -5 14 -2 13
12 -3 l18 -22 13 29 c34 77 133 133 195 111 27 -10 38 -10 61 2 16 8 40 12 55
10 18 -4 39 3 68 22 l42 28 0 152 c0 112 -3 154 -13 158 -9 5 -9 7 1 12 8 4
12 39 12 122 l0 117 -51 25 c-45 22 -52 23 -62 9 -7 -9 -25 -20 -42 -26 -34
-11 -43 -34 -21 -56 14 -13 14 -16 -1 -21 -11 -5 -14 -15 -10 -39 4 -26 1 -36
-15 -46 -22 -14 -21 -15 -37 17 -10 18 -18 22 -39 17 -21 -4 -33 1 -53 22 -26
28 -31 65 -14 106 4 10 3 17 -4 17 -6 0 -13 -11 -17 -25 -7 -29 -34 -56 -34
-33 0 8 6 20 13 27 10 11 7 12 -15 7 -15 -3 -30 -1 -33 4 -4 6 -12 7 -18 3
-24 -17 -62 -9 -65 13 -3 18 -12 22 -57 28 -29 3 -61 3 -70 0 -10 -4 -21 -1
-26 7 -7 9 -8 2 -3 -22 3 -23 2 -39 -6 -44 -6 -4 -8 -15 -5 -25 6 -18 -17 -30
-60 -30 -16 0 -17 2 -5 10 23 14 6 21 -37 14 -32 -5 -42 -12 -50 -35 -7 -17
-7 -31 -2 -35 16 -9 10 -22 -14 -30 -12 -3 -29 -13 -38 -21 -14 -12 -17 -12
-22 2 -4 8 -15 15 -25 15 -14 0 -19 7 -19 27 0 16 -9 33 -21 42 -12 9 -31 23
-42 31 -19 14 -19 17 -6 43 13 24 13 27 0 27 -8 0 -12 5 -9 11 4 6 -1 17 -11
25 -14 11 -15 17 -6 20 18 8 15 22 -5 20 -10 0 -18 6 -18 14 0 8 8 14 18 13
12 0 16 4 13 13 -3 7 1 20 9 28 17 16 8 53 -18 74 -12 10 -16 8 -21 -12 -3
-13 -3 -32 0 -40 3 -9 1 -16 -5 -16 -16 0 -24 46 -11 69 9 17 8 21 -4 21 -21
0 -40 36 -25 46 7 4 18 -1 25 -10 9 -12 13 -14 16 -4 3 7 -4 21 -14 32 -10 11
-18 25 -18 30 0 6 4 5 9 -2 6 -10 11 -9 22 4 11 14 11 18 -3 28 -11 8 -18 30
-20 59 l-3 47 -367 0 -367 0 -4 -22 -4 -23 -8 23 c-7 20 -14 22 -76 22 l-69 0
0 -360z m514 -64 c-10 -8 -21 -12 -24 -10 -5 6 21 24 34 24 6 0 1 -6 -10 -14z
m44 -61 c-3 -3 -9 2 -12 12 -6 14 -5 15 5 6 7 -7 10 -15 7 -18z m57 -5 c-3 -5
-12 -10 -18 -10 -7 0 -6 4 3 10 19 12 23 12 15 0z m185 -39 c0 -5 -7 -11 -15
-15 -8 -3 -15 -11 -15 -17 0 -8 4 -8 15 1 12 10 19 10 27 2 9 -9 7 -16 -8 -27
-23 -17 -31 -18 -39 -5 -5 8 -11 7 -21 -1 -10 -8 -14 -8 -14 0 0 6 -4 11 -10
11 -5 0 -8 -6 -6 -12 1 -7 1 -10 -1 -5 -3 4 -9 5 -14 1 -5 -3 -9 0 -9 6 0 6 7
13 16 17 8 3 13 12 10 20 -4 8 -4 18 -2 21 6 10 86 13 86 3z m116 -41 c19 -8
24 -14 16 -22 -7 -7 -19 -6 -42 6 -32 16 -56 13 -45 -5 4 -5 1 -9 -4 -9 -13 0
-13 3 -5 24 7 18 40 21 80 6z m554 -5 c19 -2 37 -4 40 -5 3 0 -4 -7 -14 -15
-16 -12 -17 -18 -8 -27 16 -16 15 -41 0 -35 -7 2 -12 8 -11 13 1 5 -9 14 -23
21 -20 9 -24 9 -25 -5 -3 -40 -5 -45 -15 -49 -7 -2 -10 6 -9 20 2 20 -1 24
-16 20 -22 -6 -26 16 -6 36 10 11 9 14 -1 18 -22 8 -3 20 25 16 16 -3 44 -7
63 -8z m240 -84 c0 -6 -9 -9 -19 -8 -11 0 -17 5 -15 9 7 11 34 10 34 -1z m200
-99 c0 -13 -12 -22 -22 -16 -10 6 -1 24 13 24 5 0 9 -4 9 -8z m-710 -252 c0
-5 -4 -10 -10 -10 -5 0 -10 5 -10 10 0 6 5 10 10 10 6 0 10 -4 10 -10z m-40
-20 c8 -5 11 -10 5 -10 -5 0 -17 5 -25 10 -8 5 -10 10 -5 10 6 0 17 -5 25 -10z
m-73 -72 c-3 -8 -6 -5 -6 6 -1 11 2 17 5 13 3 -3 4 -12 1 -19z m-137 -9 c0
-14 -17 -10 -23 5 -4 10 -1 13 9 9 7 -3 14 -9 14 -14z m57 5 c-3 -3 -12 -4
-19 -1 -8 3 -5 6 6 6 11 1 17 -2 13 -5z m390 -60 c-3 -3 -12 -4 -19 -1 -8 3
-5 6 6 6 11 1 17 -2 13 -5z m-530 -20 c-3 -3 -12 -4 -19 -1 -8 3 -5 6 6 6 11
1 17 -2 13 -5z m713 -24 c0 -5 -5 -10 -11 -10 -5 0 -7 5 -4 10 3 6 8 10 11 10
2 0 4 -4 4 -10z"/>
<path d="M1450 1389 c0 -5 5 -7 10 -4 6 3 10 8 10 11 0 2 -4 4 -10 4 -5 0 -10
-5 -10 -11z"/>
<path d="M1988 1572 c-3 -9 -1 -26 3 -37 6 -15 8 -11 8 18 1 40 -4 48 -11 19z"/>
<path d="M1692 1553 c-9 -3 -4 -10 13 -19 29 -15 45 -11 45 12 0 14 -31 18
-58 7z"/>
<path d="M6 1185 c-9 -23 -8 -65 2 -65 4 0 28 15 53 32 24 18 39 26 33 18 -9
-12 -9 -18 2 -28 8 -7 14 -8 14 -2 0 5 8 10 18 10 61 0 10 34 -66 45 -41 5
-50 4 -56 -10z"/>
<path d="M343 1165 c-26 -11 -32 -19 -31 -43 1 -26 3 -28 14 -17 8 7 11 21 8
29 -5 12 2 18 25 22 17 4 31 10 31 15 0 12 -9 11 -47 -6z"/>
<path d="M518 1171 c-25 -6 -26 -8 -14 -36 10 -24 13 -26 19 -12 3 9 2 17 -4
17 -6 0 -7 5 -4 10 5 8 12 7 23 -2 12 -10 16 -10 19 0 3 6 9 12 14 12 5 0 4
-9 -3 -20 -14 -22 -12 -25 20 -34 16 -5 22 -3 22 8 0 8 8 19 18 25 18 10 15
13 -33 24 -11 3 -27 7 -35 10 -8 2 -27 2 -42 -2z"/>
<path d="M697 1153 c13 -2 30 -14 38 -26 14 -20 13 -22 -7 -30 -17 -6 -26 -3
-39 15 -10 12 -21 20 -24 16 -4 -3 3 -16 14 -27 12 -12 21 -26 21 -32 0 -8 13
-9 39 -5 29 4 42 2 48 -8 4 -7 20 -16 36 -20 15 -3 38 -9 52 -12 21 -5 24 -3
19 11 -6 15 -4 16 13 6 17 -8 22 -7 27 6 6 14 8 14 22 -3 14 -17 15 -17 10 -1
-9 29 4 47 37 47 17 0 40 -8 51 -17 20 -17 20 -17 7 0 -11 14 -11 17 2 17 8 0
21 8 28 17 13 15 11 16 -19 10 -25 -5 -31 -4 -26 6 6 9 5 9 -8 0 -8 -7 -17
-10 -21 -7 -3 3 -20 9 -39 13 -18 5 -44 11 -58 15 -20 5 -21 5 -8 -3 19 -13
13 -51 -8 -51 -8 0 -14 4 -14 10 0 5 -6 7 -13 4 -7 -2 -21 2 -32 10 -19 14
-19 14 -1 13 10 -1 21 4 23 11 7 18 -44 15 -55 -4 -8 -14 -10 -14 -25 1 -9 9
-22 13 -28 9 -8 -4 -9 -3 -5 4 5 9 -6 12 -36 11 -24 -1 -33 -4 -21 -6z"/>
<path d="M356 1054 c-4 -9 -9 -14 -12 -11 -3 3 -17 -1 -31 -8 -14 -7 -31 -11
-38 -8 -23 8 -55 -16 -55 -41 0 -32 48 -46 67 -19 12 15 17 16 34 5 18 -12 19
-11 10 7 -15 27 -14 36 3 22 12 -10 19 -8 35 8 25 25 26 34 7 50 -11 9 -15 8
-20 -5z m4 -34 c0 -5 -2 -10 -4 -10 -3 0 -8 5 -11 10 -3 6 -1 10 4 10 6 0 11
-4 11 -10z m-110 -14 c0 -3 -4 -8 -10 -11 -5 -3 -10 -1 -10 4 0 6 5 11 10 11
6 0 10 -2 10 -4z m30 -36 c0 -5 -7 -10 -15 -10 -8 0 -15 5 -15 10 0 6 7 10 15
10 8 0 15 -4 15 -10z"/>
<path d="M0 1039 c0 -5 5 -7 10 -4 5 3 10 8 10 11 0 2 -4 4 -10 4 -5 0 -10 -5
-10 -11z"/>
<path d="M11 1014 c-21 -25 -3 -30 22 -6 15 16 17 22 7 22 -8 -1 -21 -8 -29
-16z"/>
<path d="M125 990 c-3 -5 -2 -10 4 -10 5 0 13 5 16 10 3 6 2 10 -4 10 -5 0
-13 -4 -16 -10z"/>
<path d="M35 970 c3 -5 13 -10 21 -10 8 0 12 5 9 10 -3 6 -13 10 -21 10 -8 0
-12 -4 -9 -10z"/>
<path d="M17 954 c-11 -11 -8 -34 4 -34 6 0 9 7 5 15 -3 8 -1 15 4 15 6 0 10
-9 10 -19 0 -11 5 -23 12 -27 7 -4 8 -3 4 5 -4 6 -2 18 4 26 8 9 8 15 2 15 -6
0 -17 2 -24 5 -8 3 -17 2 -21 -1z"/>
<path d="M424 912 c4 -7 1 -12 -8 -12 -9 0 -16 -4 -16 -10 0 -5 -8 -7 -17 -4
-14 5 -15 4 -4 -4 21 -15 5 -42 -29 -48 -33 -7 -41 -24 -12 -24 11 0 27 9 37
20 10 11 21 17 26 15 4 -3 15 2 23 11 9 8 16 10 16 4 0 -6 -7 -13 -15 -16 -17
-7 -21 -34 -5 -34 6 0 10 5 10 12 0 6 3 8 6 5 4 -4 2 -13 -5 -20 -9 -11 -7
-17 6 -28 12 -10 15 -11 9 -1 -4 7 -2 19 4 27 7 8 10 21 7 29 -4 10 0 12 14 9
10 -3 19 0 19 6 0 6 -5 11 -11 11 -15 0 17 30 33 31 7 1 0 5 -17 9 -16 5 -41
12 -54 16 -17 5 -22 4 -17 -4z m-4 -37 c-7 -9 -15 -13 -17 -11 -7 7 7 26 19
26 6 0 6 -6 -2 -15z"/>
<path d="M90 868 c0 -12 3 -18 7 -14 11 10 12 36 2 36 -5 0 -9 -10 -9 -22z"/>
<path d="M327 863 c-37 -19 -25 -35 13 -16 17 8 28 19 25 24 -4 5 -7 9 -8 8
-1 -1 -14 -8 -30 -16z"/>
<path d="M272 836 c7 -8 15 -12 17 -11 5 6 -10 25 -20 25 -5 0 -4 -6 3 -14z"/>
<path d="M200 810 c-8 -5 -10 -10 -5 -10 6 0 17 5 25 10 8 5 11 10 5 10 -5 0
-17 -5 -25 -10z"/>
<path d="M620 800 c0 -6 11 -15 25 -20 14 -5 25 -15 25 -22 0 -9 3 -9 12 0 7
7 21 12 33 12 11 1 -5 9 -35 20 -66 23 -60 22 -60 10z"/>
<path d="M484 782 c-18 -6 -20 -9 -8 -19 10 -10 15 -10 21 1 4 7 15 16 23 19
13 5 13 5 0 5 -8 0 -25 -3 -36 -6z"/>
<path d="M545 780 c3 -5 8 -10 11 -10 2 0 4 5 4 10 0 6 -5 10 -11 10 -5 0 -7
-4 -4 -10z"/>
<path d="M750 770 c0 -5 5 -10 10 -10 6 0 10 5 10 10 0 6 -4 10 -10 10 -5 0
-10 -4 -10 -10z"/>
<path d="M528 753 c7 -3 16 -2 19 1 4 3 -2 6 -13 5 -11 0 -14 -3 -6 -6z"/>
<path d="M1108 753 c6 -2 18 -2 25 0 6 3 1 5 -13 5 -14 0 -19 -2 -12 -5z"/>
<path d="M1065 740 c-3 -5 -2 -10 4 -10 5 0 13 5 16 10 3 6 2 10 -4 10 -5 0
-13 -4 -16 -10z"/>
<path d="M810 710 c-9 -6 -10 -10 -3 -10 6 0 15 5 18 10 8 12 4 12 -15 0z"/>
<path d="M896 705 c4 -9 0 -15 -10 -15 -12 0 -16 -10 -16 -39 0 -22 -5 -43
-11 -46 -7 -5 -8 7 -4 35 5 32 3 41 -7 37 -7 -2 -13 -11 -12 -18 1 -8 -7 -15
-16 -15 -11 0 -15 6 -12 18 3 12 -1 18 -13 18 -11 0 -15 -5 -10 -19 3 -12 0
-21 -10 -25 -12 -4 -15 -13 -10 -35 5 -22 2 -32 -11 -39 -13 -7 -14 -13 -5
-31 7 -11 15 -21 20 -21 4 0 8 -13 8 -30 0 -28 -1 -29 -14 -10 -8 11 -11 25
-7 31 4 7 2 9 -7 5 -8 -3 -21 -9 -31 -12 -9 -3 -19 -16 -23 -27 -7 -21 -7 -21
-12 -2 -7 31 -25 65 -36 65 -5 0 -7 -9 -4 -20 4 -16 0 -20 -19 -20 -21 0 -29
-10 -25 -32 0 -5 -4 -8 -9 -8 -6 0 -18 -8 -28 -17 -9 -10 -30 -24 -46 -31 -18
-8 -26 -18 -22 -27 3 -9 -3 -19 -15 -26 -15 -8 -18 -14 -10 -23 8 -10 -1 -24
-40 -60 -27 -25 -47 -51 -44 -56 3 -6 -3 -10 -13 -10 -11 0 -25 -6 -31 -14 -6
-7 -22 -11 -36 -8 -17 3 -27 -1 -31 -12 -3 -9 -26 -21 -49 -27 -42 -11 -61
-30 -49 -50 3 -5 12 -9 20 -9 8 0 14 -4 14 -10 0 -16 -32 -27 -100 -34 -82 -9
-110 -16 -110 -27 0 -5 421 -9 1000 -9 l1000 0 0 65 c0 63 -1 65 -25 65 -14 0
-28 -7 -31 -15 -10 -26 -32 -16 -39 17 -4 18 -15 41 -24 52 -22 26 -102 59
-114 47 -5 -5 -23 0 -45 15 -20 14 -45 23 -56 22 -14 -2 -25 6 -34 25 -7 15
-19 27 -26 27 -8 0 -19 7 -26 15 -13 15 -35 15 -91 -1 -9 -3 -19 2 -22 10 -5
11 2 13 31 10 26 -3 33 -1 22 6 -13 8 -12 11 5 25 11 8 30 18 42 21 19 5 20 8
8 20 -12 13 -17 12 -34 -2 -11 -10 -30 -18 -43 -20 -13 -1 -35 -5 -49 -7 -14
-3 -30 -2 -35 1 -5 4 -26 43 -46 87 -24 52 -42 80 -52 80 -9 0 -21 7 -26 15
-9 13 -11 13 -19 1 -8 -12 -12 -12 -25 -2 -9 7 -13 17 -11 22 8 11 -5 59 -15
59 -5 0 -11 -8 -13 -17 -4 -17 -5 -17 -6 0 0 9 -5 17 -11 17 -10 0 -23 -39
-19 -56 3 -12 -22 -64 -31 -64 -4 0 -5 32 -3 70 3 69 -10 95 -23 45 -4 -14
-11 -24 -18 -22 -12 5 -12 9 -1 42 6 18 4 17 -14 -4 -19 -21 -21 -21 -22 -5
-1 11 -1 26 0 34 2 12 0 12 -7 1 -7 -9 -12 -10 -16 -2 -12 19 -22 13 -51 -29
-15 -22 -31 -38 -34 -35 -4 2 -13 22 -21 44 -7 23 -19 41 -26 41 -8 0 -11 -6
-8 -15z m304 -159 c0 -2 -7 -7 -16 -10 -8 -3 -12 -2 -9 4 6 10 25 14 25 6z
m-329 -22 c37 -5 47 -11 61 -39 l17 -34 -52 25 c-29 13 -59 24 -68 24 -8 0
-24 7 -35 15 -18 14 -18 14 7 15 14 0 46 -3 70 -6z m380 -9 c0 -6 -10 -12 -23
-13 -19 -4 -20 -2 -9 12 15 17 33 18 32 1z m-607 -97 c-9 -14 -23 2 -17 18 4
12 8 13 14 3 4 -7 5 -17 3 -21z m-48 -14 c-4 -9 -9 -15 -11 -12 -3 3 -3 13 1
22 4 9 9 15 11 12 3 -3 3 -13 -1 -22z m204 16 c0 -5 -2 -10 -4 -10 -3 0 -8 5
-11 10 -3 6 -1 10 4 10 6 0 11 -4 11 -10z m-240 -40 c0 -5 -2 -10 -4 -10 -3 0
-8 5 -11 10 -3 6 -1 10 4 10 6 0 11 -4 11 -10z m75 -70 c3 -5 1 -10 -4 -10 -6
0 -11 5 -11 10 0 6 2 10 4 10 3 0 8 -4 11 -10z m-41 -95 c-4 -8 -8 -15 -10
-15 -2 0 -4 7 -4 15 0 8 4 15 10 15 5 0 7 -7 4 -15z m21 -35 c3 -5 2 -10 -4
-10 -5 0 -13 5 -16 10 -3 6 -2 10 4 10 5 0 13 -4 16 -10z m39 2 c3 -5 -1 -9
-9 -9 -8 0 -12 4 -9 9 3 4 7 8 9 8 2 0 6 -4 9 -8z m-254 -142 c0 -5 -4 -10
-10 -10 -5 0 -10 5 -10 10 0 6 5 10 10 10 6 0 10 -4 10 -10z m-40 -14 c0 -3
-4 -8 -10 -11 -5 -3 -10 -1 -10 4 0 6 5 11 10 11 6 0 10 -2 10 -4z"/>
<path d="M715 540 c-3 -5 -1 -10 4 -10 6 0 11 5 11 10 0 6 -2 10 -4 10 -3 0
-8 -4 -11 -10z"/>
<path d="M1790 541 c-8 -3 19 -10 60 -16 58 -8 76 -14 78 -27 3 -13 -1 -16
-12 -12 -9 3 -23 1 -31 -6 -8 -7 -21 -10 -29 -7 -8 3 -25 -2 -38 -12 -13 -10
-35 -21 -50 -25 -32 -7 -33 -13 -12 -41 12 -16 27 -20 82 -21 37 0 88 2 115 4
l47 5 0 67 c0 72 -6 86 -27 69 -10 -9 -13 -8 -13 5 0 9 -6 17 -12 17 -39 5
-145 5 -158 0z"/>
<path d="M690 509 c0 -5 5 -7 10 -4 6 3 10 8 10 11 0 2 -4 4 -10 4 -5 0 -10
-5 -10 -11z"/>
<path d="M1726 396 c3 -9 11 -16 16 -16 13 0 5 23 -10 28 -7 2 -10 -2 -6 -12z"/>
</g>
</svg>
