<svg xmlns="http://www.w3.org/2000/svg" width="210" height="64" viewBox="0 0 210 64">
  <g id="グループ_56" data-name="グループ 56" transform="translate(-207 -342)">
    <text id="送信" transform="translate(296 380)" fill="#1c1a1a" font-size="16" font-family="YuGo-Medium, YuGothic" font-weight="500"><tspan x="0" y="0">送信</tspan></text>
    <path id="長方形_5" data-name="長方形 5" d="M6,1A5.006,5.006,0,0,0,1,6V58a5.006,5.006,0,0,0,5,5H204a5.006,5.006,0,0,0,5-5V6a5.006,5.006,0,0,0-5-5H6M6,0H204a6,6,0,0,1,6,6V58a6,6,0,0,1-6,6H6a6,6,0,0,1-6-6V6A6,6,0,0,1,6,0Z" transform="translate(207 342)" fill="#855896"/>
  </g>
</svg>
